0604logo-squelette.ufo
<glyph name="exclam" format="1">
  <advance width="150"/>
  <unicode hex="0021"/>
  <outline>
    <contour>
      <point x="75" y="253" type="line"/>
      <point x="75" y="802" type="line"/>
    </contour>
  </outline>
</glyph>
<glyph name="quotedbl" format="1">
  <advance width="240"/>
  <unicode hex="0022"/>
  <outline>
    <contour>
      <point x="75" y="507" type="line"/>
      <point x="75" y="600" type="line"/>
    </contour>
    <contour>
      <point x="165" y="507" type="line"/>
      <point x="165" y="600" type="line"/>
    </contour>
  </outline>
</glyph>
<glyph name="numbersign" format="1">
  <advance width="440"/>
  <unicode hex="0023"/>
  <outline>
    <contour>
      <point x="405" y="346" type="line"/>
      <point x="77" y="346" type="line"/>
    </contour>
    <contour>
      <point x="237" y="0" type="line"/>
      <point x="369" y="598" type="line"/>
    </contour>
    <contour>
      <point x="91" y="0" type="line"/>
      <point x="223" y="598" type="line"/>
    </contour>
    <contour>
      <point x="363" y="160" type="line"/>
      <point x="35" y="160" type="line"/>
    </contour>
  </outline>
</glyph>
<glyph name="dollar" format="1">
  <advance width="486"/>
  <unicode hex="0024"/>
  <outline>
    <contour>
      <point x="249" y="-91" type="line"/>
      <point x="249" y="0" type="line"/>
    </contour>
    <contour>
      <point x="248" y="597" type="line"/>
      <point x="248" y="690" type="line"/>
    </contour>
    <contour>
      <point x="70" y="127" type="line"/>
      <point x="116" y="47" type="line"/>
      <point x="197" y="1" type="line"/>
      <point x="289" y="1" type="line"/>
      <point x="369" y="47" type="line"/>
      <point x="415" y="127" type="line"/>
      <point x="415" y="219" type="line"/>
      <point x="369" y="300" type="line"/>
      <point x="289" y="346" type="line"/>
      <point x="197" y="346" type="line"/>
      <point x="116" y="300" type="line"/>
      <point x="70" y="378" type="line"/>
      <point x="70" y="470" type="line"/>
      <point x="116" y="550" type="line"/>
      <point x="197" y="597" type="line"/>
      <point x="289" y="597" type="line"/>
      <point x="369" y="550" type="line"/>
      <point x="416" y="470" type="line"/>
    </contour>
  </outline>
</glyph>
<glyph name="percent" format="1">
  <advance width="534"/>
  <unicode hex="0025"/>
  <outline>
    <contour>
      <point x="459" y="600" type="line"/>
      <point x="75" y="0" type="line"/>
    </contour>
  </outline>
</glyph>
<glyph name="ampersand" format="1">
  <advance width="490"/>
  <unicode hex="0026"/>
  <outline>
    <contour>
      <point x="277" y="601" type="line"/>
      <point x="180" y="601" type="line"/>
      <point x="111" y="561" type="line"/>
      <point x="70" y="492" type="line"/>
      <point x="70" y="411" type="line"/>
      <point x="111" y="342" type="line"/>
      <point x="180" y="302" type="line"/>
      <point x="455" y="302" type="line"/>
      <point x="180" y="302" type="line"/>
      <point x="111" y="262" type="line"/>
      <point x="70" y="192" type="line"/>
      <point x="70" y="112" type="line"/>
      <point x="111" y="42" type="line"/>
      <point x="180" y="2" type="line"/>
      <point x="319" y="2" type="line"/>
      <point x="319" y="454" type="line"/>
    </contour>
  </outline>
</glyph>
<glyph name="quotesingle" format="1">
  <advance width="150"/>
  <unicode hex="0027"/>
  <outline>
    <contour>
      <point x="75" y="507" type="line"/>
      <point x="75" y="600" type="line"/>
    </contour>
  </outline>
</glyph>
<glyph name="parenleft" format="1">
  <advance width="273"/>
  <unicode hex="0028"/>
  <outline>
    <contour>
      <point x="203" y="728" type="line"/>
      <point x="122" y="682" type="line"/>
      <point x="76" y="601" type="line"/>
      <point x="76" y="-128" type="line"/>
      <point x="122" y="-208" type="line"/>
      <point x="203" y="-255" type="line"/>
    </contour>
  </outline>
</glyph>
<glyph name="parenright" format="1">
  <advance width="271"/>
  <unicode hex="0029"/>
  <outline>
    <contour>
      <point x="70" y="-257" type="line"/>
      <point x="150" y="-210" type="line"/>
      <point x="196" y="-130" type="line"/>
      <point x="196" y="601" type="line"/>
      <point x="150" y="682" type="line"/>
      <point x="70" y="728" type="line"/>
    </contour>
  </outline>
</glyph>
<glyph name="asterisk" format="1">
  <advance width="300"/>
  <unicode hex="002A"/>
  <outline>
    <contour>
      <point x="150" y="564" type="line"/>
      <point x="150" y="472" type="line"/>
    </contour>
    <contour>
      <point x="70" y="518" type="line"/>
      <point x="150" y="472" type="line"/>
      <point x="196" y="391" type="line"/>
    </contour>
    <contour>
      <point x="230" y="518" type="line"/>
      <point x="149" y="471" type="line"/>
      <point x="103" y="391" type="line"/>
    </contour>
  </outline>
</glyph>
<glyph name="plus" format="1">
  <advance width="438"/>
  <unicode hex="002B"/>
  <outline>
    <contour>
      <point x="368" y="179" type="line"/>
      <point x="70" y="179" type="line"/>
    </contour>
    <contour>
      <point x="218" y="0" type="line"/>
      <point x="218" y="346" type="line"/>
    </contour>
  </outline>
</glyph>
<glyph name="comma" format="1">
  <advance width="187"/>
  <unicode hex="002C"/>
  <outline>
    <contour>
      <point x="70" y="-80" type="line"/>
      <point x="117" y="0" type="line"/>
    </contour>
  </outline>
</glyph>
<glyph name="hyphen" format="1">
  <advance width="333"/>
  <unicode hex="002D"/>
  <outline>
    <contour>
      <point x="70" y="158" type="line"/>
      <point x="263" y="158" type="line"/>
    </contour>
  </outline>
</glyph>
<glyph name="slash" format="1">
  <advance width="524"/>
  <unicode hex="002F"/>
  <outline>
    <contour>
      <point x="70" y="0" type="line"/>
      <point x="454" y="600" type="line"/>
    </contour>
  </outline>
</glyph>
<glyph name="zero" format="1">
  <advance width="485"/>
  <unicode hex="0030"/>
  <outline>
    <contour>
      <point x="369" y="47" type="line"/>
      <point x="415" y="127" type="line"/>
      <point x="415" y="219" type="line"/>
      <point x="369" y="300" type="line"/>
      <point x="288" y="346" type="line"/>
      <point x="196" y="346" type="line"/>
      <point x="116" y="300" type="line"/>
      <point x="70" y="219" type="line"/>
      <point x="70" y="127" type="line"/>
      <point x="116" y="47" type="line"/>
      <point x="196" y="1" type="line"/>
      <point x="288" y="1" type="line"/>
    </contour>
  </outline>
</glyph>
<glyph name="one" format="1">
  <advance width="249"/>
  <unicode hex="0031"/>
  <outline>
    <contour>
      <point x="174" y="0" type="line"/>
      <point x="174" y="346" type="line"/>
      <point x="35" y="266" type="line"/>
    </contour>
  </outline>
</glyph>
<glyph name="two" format="1">
  <advance width="485"/>
  <unicode hex="0032"/>
  <outline>
    <contour>
      <point x="415" y="0" type="line"/>
      <point x="70" y="0" type="line"/>
      <point x="415" y="218" type="line"/>
      <point x="369" y="299" type="line"/>
      <point x="289" y="345" type="line"/>
      <point x="197" y="345" type="line"/>
      <point x="116" y="299" type="line"/>
      <point x="70" y="218" type="line"/>
    </contour>
  </outline>
</glyph>
<glyph name="three" format="1">
  <advance width="430"/>
  <unicode hex="0033"/>
  <outline>
    <contour>
      <point x="233" y="-256" type="line"/>
      <point x="314" y="-210" type="line"/>
      <point x="360" y="-130" type="line"/>
      <point x="360" y="-37" type="line"/>
      <point x="314" y="42" type="line"/>
      <point x="233" y="88" type="line"/>
      <point x="141" y="88" type="line"/>
      <point x="302" y="346" type="line"/>
      <point x="35" y="346" type="line"/>
    </contour>
    <contour>
      <point x="233" y="-256" type="line"/>
      <point x="141" y="-256" type="line"/>
      <point x="61" y="-210" type="line"/>
    </contour>
  </outline>
</glyph>
<glyph name="four" format="1">
  <advance width="415"/>
  <unicode hex="0034"/>
  <outline>
    <contour>
      <point x="380" y="-66" type="line"/>
      <point x="35" y="-66" type="line"/>
      <point x="295" y="345" type="line"/>
      <point x="295" y="-255" type="line"/>
    </contour>
  </outline>
</glyph>
<glyph name="five" format="1">
  <advance width="445"/>
  <unicode hex="0035"/>
  <outline>
    <contour>
      <point x="342" y="346" type="line"/>
      <point x="75" y="346" type="line"/>
      <point x="75" y="44" type="line"/>
      <point x="75" y="44" type="line"/>
      <point x="156" y="90" type="line"/>
      <point x="248" y="90" type="line"/>
      <point x="328" y="44" type="line"/>
      <point x="375" y="-36" type="line"/>
      <point x="375" y="-128" type="line"/>
      <point x="328" y="-208" type="line"/>
      <point x="248" y="-255" type="line"/>
    </contour>
    <contour>
      <point x="75" y="-208" type="line"/>
      <point x="156" y="-255" type="line"/>
      <point x="248" y="-255" type="line"/>
    </contour>
  </outline>
</glyph>
<glyph name="six" format="1">
  <advance width="485"/>
  <unicode hex="0036"/>
  <outline>
    <contour>
      <point x="119" y="297" type="line"/>
      <point x="196" y="346" type="line"/>
      <point x="288" y="346" type="line"/>
      <point x="369" y="300" type="line"/>
      <point x="415" y="219" type="line"/>
      <point x="415" y="127" type="line"/>
      <point x="369" y="47" type="line"/>
      <point x="288" y="1" type="line"/>
      <point x="196" y="1" type="line"/>
      <point x="116" y="47" type="line"/>
      <point x="70" y="127" type="line"/>
      <point x="70" y="219" type="line"/>
      <point x="313" y="600" type="line"/>
    </contour>
  </outline>
</glyph>
<glyph name="seven" format="1">
  <advance width="489"/>
  <unicode hex="0037"/>
  <outline>
    <contour>
      <point x="70" y="-254" type="line"/>
      <point x="454" y="345" type="line"/>
      <point x="70" y="345" type="line"/>
    </contour>
  </outline>
</glyph>
<glyph name="eight" format="1">
  <advance width="486"/>
  <unicode hex="0038"/>
  <outline>
    <contour>
      <point x="369" y="298" type="line"/>
      <point x="416" y="381" type="line"/>
      <point x="416" y="473" type="line"/>
      <point x="370" y="554" type="line"/>
      <point x="289" y="600" type="line"/>
      <point x="197" y="600" type="line"/>
      <point x="117" y="554" type="line"/>
      <point x="71" y="473" type="line"/>
      <point x="71" y="381" type="line"/>
      <point x="116" y="298" type="line"/>
      <point x="70" y="218" type="line"/>
      <point x="70" y="126" type="line"/>
      <point x="116" y="46" type="line"/>
      <point x="196" y="-1" type="line"/>
      <point x="289" y="-1" type="line"/>
    </contour>
    <contour>
      <point x="289" y="-1" type="line"/>
      <point x="369" y="46" type="line"/>
      <point x="415" y="126" type="line"/>
      <point x="415" y="218" type="line"/>
      <point x="369" y="298" type="line"/>
      <point x="116" y="298" type="line"/>
    </contour>
  </outline>
</glyph>
<glyph name="nine" format="1">
  <advance width="486"/>
  <unicode hex="0039"/>
  <outline>
    <contour>
      <point x="173" y="-253" type="line"/>
      <point x="416" y="126" type="line"/>
      <point x="416" y="218" type="line"/>
      <point x="369" y="299" type="line"/>
      <point x="289" y="345" type="line"/>
      <point x="197" y="345" type="line"/>
      <point x="117" y="299" type="line"/>
      <point x="70" y="218" type="line"/>
      <point x="70" y="126" type="line"/>
      <point x="117" y="46" type="line"/>
      <point x="197" y="0" type="line"/>
      <point x="289" y="0" type="line"/>
      <point x="366" y="48" type="line"/>
    </contour>
  </outline>
</glyph>
<glyph name="semicolon" format="1">
  <advance width="152"/>
  <unicode hex="003B"/>
  <outline>
    <contour>
      <point x="35" y="-80" type="line"/>
      <point x="82" y="0" type="line"/>
    </contour>
  </outline>
</glyph>
<glyph name="less" format="1">
  <advance width="305"/>
  <unicode hex="003C"/>
  <outline>
    <contour>
      <point x="235" y="344" type="line"/>
      <point x="70" y="171" type="line"/>
      <point x="235" y="-1" type="line"/>
    </contour>
  </outline>
</glyph>
<glyph name="equal" format="1">
  <advance width="438"/>
  <unicode hex="003D"/>
  <outline>
    <contour>
      <point x="368" y="249" type="line"/>
      <point x="70" y="249" type="line"/>
    </contour>
    <contour>
      <point x="368" y="69" type="line"/>
      <point x="70" y="69" type="line"/>
    </contour>
  </outline>
</glyph>
<glyph name="greater" format="1">
  <advance width="305"/>
  <unicode hex="003E"/>
  <outline>
    <contour>
      <point x="70" y="0" type="line"/>
      <point x="235" y="172" type="line"/>
      <point x="70" y="345" type="line"/>
    </contour>
  </outline>
</glyph>
<glyph name="A" format="1">
  <advance width="506"/>
  <unicode hex="0041"/>
  <outline>
    <contour>
      <point x="471.0" y="0.0" type="move"/>
      <point x="253.0" y="599.0" type="line"/>
      <point x="35.0" y="0.0" type="line"/>
    </contour>
    <contour>
      <point x="120" y="233" type="line"/>
      <point x="386" y="233" type="line"/>
    </contour>
  </outline>
</glyph>
<glyph name="B" format="1">
  <advance width="523"/>
  <unicode hex="0042"/>
  <outline>
    <contour>
      <point x="75" y="0" type="line"/>
      <point x="344" y="0" type="line"/>
      <point x="413" y="40" type="line"/>
      <point x="453" y="109" type="line"/>
      <point x="453" y="190" type="line"/>
      <point x="413" y="259" type="line"/>
      <point x="344" y="299" type="line"/>
      <point x="75" y="299" type="line"/>
      <point x="344" y="299" type="line"/>
      <point x="413" y="339" type="line"/>
      <point x="453" y="409" type="line"/>
      <point x="453" y="489" type="line"/>
      <point x="413" y="559" type="line"/>
      <point x="344" y="599" type="line"/>
      <point x="75" y="599" type="line"/>
      <point x="75" y="-2" type="line"/>
    </contour>
  </outline>
</glyph>
<glyph name="C" format="1">
  <advance width="660"/>
  <unicode hex="0043"/>
  <outline>
    <contour>
      <point x="590.0" y="80.0" type="line"/>
      <point x="451" y="0" type="line"/>
      <point x="290" y="0" type="line"/>
      <point x="150" y="80" type="line"/>
      <point x="70" y="219" type="line"/>
      <point x="70" y="380" type="line"/>
      <point x="150" y="520" type="line"/>
      <point x="290" y="600" type="line"/>
      <point x="451" y="600" type="line"/>
      <point x="590.0" y="520.0" type="line"/>
      <point x="451.0" y="600.0" type="line"/>
      <point x="290.0" y="600.0" type="line"/>
      <point x="150.0" y="520.0" type="line"/>
      <point x="70.0" y="380.0" type="line"/>
      <point x="70.0" y="219.0" type="line"/>
      <point x="150.0" y="80.0" type="line"/>
      <point x="290.0" y="0.0" type="line"/>
      <point x="451.0" y="0.0" type="line"/>
    </contour>
  </outline>
</glyph>
<glyph name="D" format="1">
  <advance width="525"/>
  <unicode hex="0044"/>
  <outline>
    <contour>
      <point x="75" y="0" type="line"/>
      <point x="236" y="0" type="line"/>
      <point x="375" y="80" type="line"/>
      <point x="455" y="219" type="line"/>
      <point x="455" y="380" type="line"/>
      <point x="375" y="519" type="line"/>
      <point x="236" y="600" type="line"/>
      <point x="75" y="600" type="line"/>
      <point x="75" y="-2" type="line"/>
    </contour>
  </outline>
</glyph>
<glyph name="E" format="1">
  <advance width="530"/>
  <unicode hex="0045"/>
  <outline>
    <contour>
      <point x="460" y="600" type="line"/>
      <point x="75" y="600" type="line"/>
      <point x="75" y="0" type="line"/>
      <point x="460" y="0" type="line"/>
    </contour>
    <contour>
      <point x="75" y="301" type="line"/>
      <point x="341" y="301" type="line"/>
    </contour>
  </outline>
</glyph>
<glyph name="F" format="1">
  <advance width="530"/>
  <unicode hex="0046"/>
  <outline>
    <contour>
      <point x="75.0" y="0.0" type="line"/>
      <point x="75" y="600" type="line"/>
      <point x="460" y="600" type="line"/>
      <point x="75.0" y="600.0" type="line"/>
    </contour>
    <contour>
      <point x="341" y="300" type="line"/>
      <point x="75" y="300" type="line"/>
    </contour>
  </outline>
</glyph>
<glyph name="G" format="1">
  <advance width="659"/>
  <unicode hex="0047"/>
  <outline>
    <contour>
      <point x="324" y="242" type="move"/>
      <point x="589.0" y="242.0" type="line"/>
      <point x="589.0" y="81.0" type="line"/>
      <point x="450.0" y="1.0" type="line"/>
      <point x="289.0" y="1.0" type="line"/>
      <point x="150.0" y="81.0" type="line"/>
      <point x="70.0" y="220.0" type="line"/>
      <point x="70.0" y="381.0" type="line"/>
      <point x="150.0" y="520.0" type="line"/>
      <point x="289.0" y="601.0" type="line"/>
      <point x="450.0" y="601.0" type="line"/>
      <point x="589.0" y="520.0" type="line"/>
    </contour>
  </outline>
</glyph>
<glyph name="H" format="1">
  <advance width="536"/>
  <unicode hex="0048"/>
  <outline>
    <contour>
      <point x="75" y="601" type="line"/>
      <point x="75" y="0" type="line"/>
    </contour>
    <contour>
      <point x="461" y="300" type="line"/>
      <point x="75" y="300" type="line"/>
    </contour>
    <contour>
      <point x="461" y="0" type="line"/>
      <point x="461" y="601" type="line"/>
    </contour>
  </outline>
</glyph>
<glyph name="I" format="1">
  <advance width="150"/>
  <unicode hex="0049"/>
  <outline>
    <contour>
      <point x="75" y="601" type="line"/>
      <point x="75" y="0" type="line"/>
    </contour>
  </outline>
</glyph>
<glyph name="J" format="1">
  <advance width="409"/>
  <unicode hex="004A"/>
  <outline>
    <contour>
      <point x="35" y="0" type="line"/>
      <point x="195" y="0" type="line"/>
      <point x="334" y="80" type="line"/>
      <point x="334" y="600" type="line"/>
    </contour>
  </outline>
</glyph>
<glyph name="K" format="1">
  <advance width="523"/>
  <unicode hex="004B"/>
  <outline>
    <contour>
      <point x="129" y="299" type="line"/>
      <point x="453" y="599" type="line"/>
    </contour>
    <contour>
      <point x="453" y="0" type="line"/>
      <point x="75" y="346" type="line"/>
    </contour>
    <contour>
      <point x="75" y="0" type="line"/>
      <point x="75" y="600" type="line"/>
    </contour>
  </outline>
</glyph>
<glyph name="L" format="1">
  <advance width="495"/>
  <unicode hex="004C"/>
  <outline>
    <contour>
      <point x="75" y="600" type="line"/>
      <point x="75" y="0" type="line"/>
      <point x="460" y="0" type="line"/>
    </contour>
  </outline>
</glyph>
<glyph name="M" format="1">
  <advance width="619"/>
  <unicode hex="004D"/>
  <outline>
    <contour>
      <point x="544" y="0" type="line"/>
      <point x="544" y="598" type="line"/>
      <point x="309" y="234" type="line"/>
      <point x="75" y="598" type="line"/>
      <point x="75" y="0" type="line"/>
    </contour>
  </outline>
</glyph>
<glyph name="P" format="1">
  <advance width="523"/>
  <unicode hex="0050"/>
  <outline>
    <contour>
      <point x="75" y="299" type="line"/>
      <point x="344" y="299" type="line"/>
      <point x="413" y="339" type="line"/>
      <point x="453" y="409" type="line"/>
      <point x="453" y="489" type="line"/>
      <point x="413" y="559" type="line"/>
      <point x="344" y="599" type="line"/>
      <point x="75" y="599" type="line"/>
      <point x="75" y="1" type="line"/>
    </contour>
  </outline>
</glyph>
<glyph name="R" format="1">
  <advance width="530"/>
  <unicode hex="0052"/>
  <outline>
    <contour>
      <point x="460" y="0" type="line"/>
      <point x="268" y="299" type="line"/>
    </contour>
    <contour>
      <point x="75" y="299" type="line"/>
      <point x="346" y="300" type="line"/>
      <point x="413" y="339" type="line"/>
      <point x="453" y="409" type="line"/>
      <point x="453" y="489" type="line"/>
      <point x="413" y="559" type="line"/>
      <point x="344" y="599" type="line"/>
      <point x="75" y="599" type="line"/>
      <point x="75" y="0" type="line"/>
    </contour>
  </outline>
</glyph>
<glyph name="S" format="1">
  <advance width="485"/>
  <unicode hex="0053"/>
  <outline>
    <contour>
      <point x="415" y="470" type="line"/>
      <point x="369" y="550" type="line"/>
      <point x="289" y="597" type="line"/>
      <point x="196" y="597" type="line"/>
      <point x="116" y="550" type="line"/>
      <point x="70" y="470" type="line"/>
      <point x="70" y="378" type="line"/>
      <point x="116" y="300" type="line"/>
      <point x="196" y="251" type="line"/>
      <point x="289" y="251" type="line"/>
      <point x="369" y="298" type="line"/>
    </contour>
    <contour>
      <point x="70" y="127" type="line"/>
      <point x="116" y="47" type="line"/>
      <point x="196" y="1" type="line"/>
      <point x="288" y="1" type="line"/>
      <point x="369" y="47" type="line"/>
      <point x="415" y="127" type="line"/>
      <point x="415" y="219" type="line"/>
      <point x="369" y="300" type="line"/>
      <point x="288" y="346" type="line"/>
      <point x="196" y="346" type="line"/>
      <point x="116" y="300" type="line"/>
    </contour>
  </outline>
</glyph>
<glyph name="T" format="1">
  <advance width="455"/>
  <unicode hex="0054"/>
  <outline>
    <contour>
      <point x="420" y="602" type="line"/>
      <point x="35" y="602" type="line"/>
    </contour>
    <contour>
      <point x="227" y="602" type="line"/>
      <point x="227" y="0" type="line"/>
    </contour>
  </outline>
</glyph>
<glyph name="V" format="1">
  <advance width="457"/>
  <unicode hex="0056"/>
  <outline>
    <contour>
      <point x="35" y="598" type="line"/>
      <point x="227" y="1" type="line"/>
      <point x="422" y="598" type="line"/>
    </contour>
  </outline>
</glyph>
<glyph name="W" format="1">
  <advance width="841"/>
  <unicode hex="0057"/>
  <outline>
    <contour>
      <point x="35" y="598" type="line"/>
      <point x="227" y="-21" type="line"/>
      <point x="419" y="598" type="line"/>
      <point x="623" y="1" type="line"/>
      <point x="806" y="598" type="line"/>
    </contour>
  </outline>
</glyph>
<glyph name="X" format="1">
  <advance width="526"/>
  <unicode hex="0058"/>
  <outline>
    <contour>
      <point x="455" y="0" type="line"/>
      <point x="70" y="600" type="line"/>
    </contour>
    <contour>
      <point x="456" y="601" type="line"/>
      <point x="71" y="1" type="line"/>
    </contour>
  </outline>
</glyph>
<glyph name="Y" format="1">
  <advance width="455"/>
  <unicode hex="0059"/>
  <outline>
    <contour>
      <point x="226" y="300" type="line"/>
      <point x="226" y="2" type="line"/>
    </contour>
    <contour>
      <point x="35" y="600" type="line"/>
      <point x="226" y="300" type="line"/>
      <point x="420" y="601" type="line"/>
    </contour>
  </outline>
</glyph>
<glyph name="Z" format="1">
  <advance width="525"/>
  <unicode hex="005A"/>
  <outline>
    <contour>
      <point x="70" y="602" type="line"/>
      <point x="454" y="602" type="line"/>
      <point x="70" y="1" type="line"/>
      <point x="455" y="0" type="line"/>
    </contour>
  </outline>
</glyph>
<glyph name="asciicircum" format="1">
  <advance width="311"/>
  <unicode hex="005E"/>
  <outline>
    <contour>
      <point x="236" y="473" type="line"/>
      <point x="155" y="519" type="line"/>
      <point x="75" y="473" type="line"/>
    </contour>
  </outline>
</glyph>
<glyph name="grave" format="1">
  <advance width="267"/>
  <unicode hex="0060"/>
  <outline>
    <contour>
      <point x="70" y="598" type="line"/>
      <point x="117" y="518" type="line"/>
      <point x="197" y="471" type="line"/>
    </contour>
  </outline>
</glyph>
<glyph name="d" format="1">
  <advance width="445"/>
  <unicode hex="0064"/>
  <outline>
    <contour>
      <point x="379" y="601" type="line"/>
      <point x="379" y="0" type="line"/>
    </contour>
  </outline>
</glyph>
<glyph name="f" format="1">
  <advance width="329"/>
  <unicode hex="0066"/>
  <outline>
    <contour>
      <point x="167" y="346" type="line"/>
      <point x="75" y="346" type="line"/>
    </contour>
  </outline>
</glyph>
<glyph name="h" format="1">
  <advance width="450"/>
  <unicode hex="0068"/>
  <outline>
    <contour>
      <point x="76" y="0" type="line"/>
      <point x="76" y="600" type="line"/>
    </contour>
  </outline>
</glyph>
<glyph name="k" format="1">
  <advance width="361"/>
  <unicode hex="006B"/>
  <outline>
    <contour>
      <point x="75" y="602" type="line"/>
      <point x="75" y="0" type="line"/>
    </contour>
  </outline>
</glyph>
<glyph name="m" format="1">
  <advance width="755"/>
  <unicode hex="006D"/>
  <outline>
    <contour>
      <point x="75" y="0" type="line"/>
      <point x="75" y="347" type="line"/>
    </contour>
    <contour>
      <point x="380" y="0" type="line"/>
      <point x="380" y="300" type="line"/>
    </contour>
  </outline>
</glyph>
<glyph name="n" format="1">
  <advance width="450"/>
  <unicode hex="006E"/>
  <outline>
    <contour>
      <point x="76" y="0" type="line"/>
      <point x="76" y="346" type="line"/>
    </contour>
  </outline>
</glyph>
<glyph name="p" format="1">
  <advance width="445"/>
  <unicode hex="0070"/>
  <outline>
    <contour>
      <point x="75" y="-259" type="line"/>
      <point x="75" y="341" type="line"/>
    </contour>
  </outline>
</glyph>
<glyph name="q" format="1">
  <advance width="445"/>
  <unicode hex="0071"/>
  <outline>
    <contour>
      <point x="370" y="-259" type="line"/>
      <point x="370" y="341" type="line"/>
    </contour>
  </outline>
</glyph>
<glyph name="r" format="1">
  <advance width="283"/>
  <unicode hex="0072"/>
  <outline>
    <contour>
      <point x="75" y="0" type="line"/>
      <point x="75" y="346" type="line"/>
    </contour>
  </outline>
</glyph>
<glyph name="t" format="1">
  <advance width="238"/>
  <unicode hex="0074"/>
  <outline>
    <contour>
      <point x="184" y="347" type="line"/>
      <point x="11" y="347" type="line"/>
    </contour>
  </outline>
</glyph>
<glyph name="u" format="1">
  <advance width="450"/>
  <unicode hex="0075"/>
  <outline>
    <contour>
      <point x="374" y="346" type="line"/>
      <point x="374" y="0" type="line"/>
    </contour>
  </outline>
</glyph>
<glyph name="x" format="1">
  <advance width="443"/>
  <unicode hex="0078"/>
  <outline>
    <contour>
      <point x="373" y="0" type="line"/>
      <point x="70" y="345" type="line"/>
    </contour>
    <contour>
      <point x="70" y="0" type="line"/>
      <point x="373" y="345" type="line"/>
    </contour>
  </outline>
</glyph>
<glyph name="y" format="1">
  <advance width="388"/>
  <unicode hex="0079"/>
  <outline>
    <contour>
      <point x="40" y="348" type="line"/>
      <point x="189" y="1" type="line"/>
    </contour>
  </outline>
</glyph>
<glyph name="bar" format="1">
  <advance width="150"/>
  <unicode hex="007C"/>
  <outline>
    <contour>
      <point x="75" y="651" type="line"/>
      <point x="75" y="-85" type="line"/>
    </contour>
  </outline>
</glyph>
<glyph name="acute" format="1">
  <advance width="267"/>
  <unicode hex="00B4"/>
  <outline>
    <contour>
      <point x="70" y="472" type="line"/>
      <point x="151" y="519" type="line"/>
      <point x="197" y="599" type="line"/>
    </contour>
  </outline>
</glyph>
<glyph name="Aacute" format="1">
  <advance width="506"/>
  <unicode hex="00C1"/>
  <outline>
    <contour>
      <point x="173" y="676" type="line"/>
      <point x="253" y="722" type="line"/>
      <point x="299" y="802" type="line"/>
    </contour>
    <contour>
      <point x="471" y="0" type="line"/>
      <point x="253" y="599" type="line"/>
      <point x="35" y="0" type="line"/>
    </contour>
    <contour>
      <point x="120" y="233" type="line"/>
      <point x="386" y="233" type="line"/>
    </contour>
  </outline>
</glyph>
<glyph name="Adieresis" format="1">
  <advance width="507"/>
  <unicode hex="00C4"/>
  <outline>
    <contour>
      <point x="472" y="0" type="line"/>
      <point x="253" y="599" type="line"/>
      <point x="35" y="0" type="line"/>
    </contour>
    <contour>
      <point x="120" y="233" type="line"/>
      <point x="387" y="233" type="line"/>
    </contour>
  </outline>
</glyph>
<glyph name="Ccedilla" format="1">
  <advance width="660"/>
  <unicode hex="00C7"/>
  <outline>
    <contour>
      <point x="243" y="-218" type="line"/>
      <point x="323" y="-172" type="line"/>
      <point x="369" y="-92" type="line"/>
      <point x="369" y="0" type="line"/>
    </contour>
    <contour>
      <point x="590" y="521" type="line"/>
      <point x="451" y="601" type="line"/>
      <point x="290" y="601" type="line"/>
      <point x="150" y="521" type="line"/>
      <point x="70" y="381" type="line"/>
      <point x="70" y="220" type="line"/>
      <point x="150" y="81" type="line"/>
      <point x="290" y="0" type="line"/>
      <point x="451" y="0" type="line"/>
      <point x="590" y="81" type="line"/>
    </contour>
  </outline>
</glyph>
<glyph name="Eacute" format="1">
  <advance width="530"/>
  <unicode hex="00C9"/>
  <outline>
    <contour>
      <point x="460" y="1" type="line"/>
      <point x="75" y="1" type="line"/>
      <point x="75" y="599" type="line"/>
      <point x="460" y="599" type="line"/>
    </contour>
    <contour>
      <point x="341" y="302" type="line"/>
      <point x="75" y="302" type="line"/>
    </contour>
    <contour>
      <point x="214" y="677" type="line"/>
      <point x="294" y="723" type="line"/>
      <point x="340" y="803" type="line"/>
    </contour>
  </outline>
</glyph>
<glyph name="Igrave" format="1">
  <advance width="150"/>
  <unicode hex="00CC"/>
  <outline>
    <contour>
      <point x="-6" y="676" type="line"/>
      <point x="74" y="722" type="line"/>
      <point x="120" y="802" type="line"/>
    </contour>
    <contour>
      <point x="75" y="601" type="line"/>
      <point x="75" y="0" type="line"/>
    </contour>
  </outline>
</glyph>
<glyph name="Icircumflex" format="1">
  <advance width="150"/>
  <unicode hex="00CE"/>
  <outline>
    <contour>
      <point x="75" y="601" type="line"/>
      <point x="75" y="0" type="line"/>
    </contour>
    <contour>
      <point x="154" y="755" type="line"/>
      <point x="73" y="802" type="line"/>
      <point x="-6" y="755" type="line"/>
    </contour>
  </outline>
</glyph>
<glyph name="Idieresis" format="1">
  <advance width="150"/>
  <unicode hex="00CF"/>
  <outline>
    <contour>
      <point x="75" y="601" type="line"/>
      <point x="75" y="0" type="line"/>
    </contour>
  </outline>
</glyph>
<glyph name="Ntilde" format="1">
  <advance width="534"/>
  <unicode hex="00D1"/>
  <outline>
    <contour>
      <point x="122" y="800" type="line"/>
      <point x="214" y="800" type="line"/>
      <point x="294" y="749" type="line"/>
      <point x="387" y="749" type="line"/>
    </contour>
    <contour>
      <point x="459" y="599" type="line"/>
      <point x="459" y="0" type="line"/>
      <point x="75" y="600" type="line"/>
      <point x="75" y="0" type="line"/>
    </contour>
  </outline>
</glyph>
<glyph name="Ograve" format="1">
  <advance width="739"/>
  <unicode hex="00D2"/>
  <outline>
    <contour>
      <point x="325" y="803" type="line"/>
      <point x="371" y="723" type="line"/>
      <point x="451" y="677" type="line"/>
    </contour>
    <contour>
      <point x="289" y="0" type="line"/>
      <point x="450" y="0" type="line"/>
      <point x="589" y="80" type="line"/>
      <point x="669" y="219" type="line"/>
      <point x="669" y="380" type="line"/>
      <point x="589" y="519" type="line"/>
      <point x="450" y="599" type="line"/>
      <point x="289" y="599" type="line"/>
      <point x="150" y="519" type="line"/>
      <point x="70" y="380" type="line"/>
      <point x="70" y="219" type="line"/>
      <point x="150" y="80" type="line"/>
    </contour>
  </outline>
</glyph>
<glyph name="Oacute" format="1">
  <advance width="739"/>
  <unicode hex="00D3"/>
  <outline>
    <contour>
      <point x="287" y="677" type="line"/>
      <point x="367" y="723" type="line"/>
      <point x="413" y="803" type="line"/>
    </contour>
    <contour>
      <point x="450" y="0" type="line"/>
      <point x="289" y="0" type="line"/>
      <point x="150" y="80" type="line"/>
      <point x="70" y="219" type="line"/>
      <point x="70" y="380" type="line"/>
      <point x="150" y="519" type="line"/>
      <point x="289" y="599" type="line"/>
      <point x="450" y="599" type="line"/>
      <point x="589" y="519" type="line"/>
      <point x="669" y="380" type="line"/>
      <point x="669" y="219" type="line"/>
      <point x="589" y="80" type="line"/>
    </contour>
  </outline>
</glyph>
<glyph name="Ocircumflex" format="1">
  <advance width="739"/>
  <unicode hex="00D4"/>
  <outline>
    <contour>
      <point x="450" y="0" type="line"/>
      <point x="289" y="0" type="line"/>
      <point x="150" y="80" type="line"/>
      <point x="70" y="219" type="line"/>
      <point x="70" y="380" type="line"/>
      <point x="150" y="519" type="line"/>
      <point x="289" y="599" type="line"/>
      <point x="450" y="599" type="line"/>
      <point x="589" y="519" type="line"/>
      <point x="669" y="380" type="line"/>
      <point x="669" y="219" type="line"/>
      <point x="589" y="80" type="line"/>
    </contour>
    <contour>
      <point x="448" y="758" type="line"/>
      <point x="367" y="805" type="line"/>
      <point x="287" y="758" type="line"/>
    </contour>
  </outline>
</glyph>
<glyph name="Odieresis" format="1">
  <advance width="740"/>
  <unicode hex="00D6"/>
  <outline>
    <contour>
      <point x="450" y="0" type="line"/>
      <point x="289" y="0" type="line"/>
      <point x="150" y="80" type="line"/>
      <point x="70" y="219" type="line"/>
      <point x="70" y="380" type="line"/>
      <point x="150" y="519" type="line"/>
      <point x="289" y="599" type="line"/>
      <point x="450" y="599" type="line"/>
      <point x="589" y="519" type="line"/>
      <point x="669" y="380" type="line"/>
      <point x="669" y="219" type="line"/>
      <point x="589" y="80" type="line"/>
    </contour>
  </outline>
</glyph>
<glyph name="Ugrave" format="1">
  <advance width="583"/>
  <unicode hex="00D9"/>
  <outline>
    <contour>
      <point x="247" y="803" type="line"/>
      <point x="293" y="723" type="line"/>
      <point x="373" y="677" type="line"/>
    </contour>
    <contour>
      <point x="75" y="596" type="line"/>
      <point x="75" y="81" type="line"/>
      <point x="214" y="0" type="line"/>
      <point x="375" y="0" type="line"/>
      <point x="508" y="81" type="line"/>
      <point x="508" y="598" type="line"/>
    </contour>
  </outline>
</glyph>
<glyph name="Uacute" format="1">
  <advance width="583"/>
  <unicode hex="00DA"/>
  <outline>
    <contour>
      <point x="214" y="677" type="line"/>
      <point x="294" y="723" type="line"/>
      <point x="340" y="803" type="line"/>
    </contour>
    <contour>
      <point x="75" y="596" type="line"/>
      <point x="75" y="81" type="line"/>
      <point x="214" y="0" type="line"/>
      <point x="375" y="0" type="line"/>
      <point x="508" y="81" type="line"/>
      <point x="508" y="598" type="line"/>
    </contour>
  </outline>
</glyph>
<glyph name="Udieresis" format="1">
  <advance width="583"/>
  <unicode hex="00DC"/>
  <outline>
    <contour>
      <point x="75" y="596" type="line"/>
      <point x="75" y="81" type="line"/>
      <point x="214" y="0" type="line"/>
      <point x="375" y="0" type="line"/>
      <point x="508" y="81" type="line"/>
      <point x="508" y="598" type="line"/>
    </contour>
  </outline>
</glyph>
<glyph name="aacute" format="1">
  <advance width="444"/>
  <unicode hex="00E1"/>
  <outline>
    <contour>
      <point x="369" y="-1" type="line"/>
      <point x="369" y="345" type="line"/>
    </contour>
    <contour>
      <point x="369" y="300" type="line"/>
      <point x="288" y="346" type="line"/>
      <point x="196" y="346" type="line"/>
      <point x="116" y="300" type="line"/>
      <point x="70" y="219" type="line"/>
      <point x="70" y="127" type="line"/>
      <point x="116" y="47" type="line"/>
      <point x="196" y="1" type="line"/>
      <point x="288" y="1" type="line"/>
      <point x="369" y="47" type="line"/>
    </contour>
    <contour>
      <point x="197" y="470" type="line"/>
      <point x="278" y="517" type="line"/>
      <point x="324" y="597" type="line"/>
    </contour>
  </outline>
</glyph>
<glyph name="atilde" format="1">
  <advance width="444"/>
  <unicode hex="00E3"/>
  <outline>
    <contour>
      <point x="369" y="-1" type="line"/>
      <point x="369" y="345" type="line"/>
    </contour>
    <contour>
      <point x="369" y="300" type="line"/>
      <point x="288" y="346" type="line"/>
      <point x="196" y="346" type="line"/>
      <point x="116" y="300" type="line"/>
      <point x="70" y="219" type="line"/>
      <point x="70" y="127" type="line"/>
      <point x="116" y="47" type="line"/>
      <point x="196" y="1" type="line"/>
      <point x="288" y="1" type="line"/>
      <point x="369" y="47" type="line"/>
    </contour>
    <contour>
      <point x="357" y="549" type="line"/>
      <point x="265" y="549" type="line"/>
      <point x="185" y="600" type="line"/>
      <point x="92" y="600" type="line"/>
    </contour>
  </outline>
</glyph>
<glyph name="adieresis" format="1">
  <advance width="444"/>
  <unicode hex="00E4"/>
  <outline>
    <contour>
      <point x="369" y="-1" type="line"/>
      <point x="369" y="345" type="line"/>
    </contour>
    <contour>
      <point x="369" y="300" type="line"/>
      <point x="288" y="346" type="line"/>
      <point x="196" y="346" type="line"/>
      <point x="116" y="300" type="line"/>
      <point x="70" y="219" type="line"/>
      <point x="70" y="127" type="line"/>
      <point x="116" y="47" type="line"/>
      <point x="196" y="1" type="line"/>
      <point x="288" y="1" type="line"/>
      <point x="369" y="47" type="line"/>
    </contour>
  </outline>
</glyph>
<glyph name="igrave" format="1">
  <advance width="150"/>
  <unicode hex="00EC"/>
  <outline>
    <contour>
      <point x="28" y="598" type="line"/>
      <point x="75" y="518" type="line"/>
      <point x="155" y="471" type="line"/>
    </contour>
    <contour>
      <point x="75" y="347" type="line"/>
      <point x="75" y="0" type="line"/>
    </contour>
  </outline>
</glyph>
<glyph name="iacute" format="1">
  <advance width="150"/>
  <unicode hex="00ED"/>
  <outline>
    <contour>
      <point x="-4" y="470" type="line"/>
      <point x="76" y="517" type="line"/>
      <point x="122" y="597" type="line"/>
    </contour>
    <contour>
      <point x="75" y="347" type="line"/>
      <point x="75" y="0" type="line"/>
    </contour>
  </outline>
</glyph>
<glyph name="icircumflex" format="1">
  <advance width="150"/>
  <unicode hex="00EE"/>
  <outline>
    <contour>
      <point x="75" y="347" type="line"/>
      <point x="75" y="0" type="line"/>
    </contour>
    <contour>
      <point x="155" y="471" type="line"/>
      <point x="75" y="518" type="line"/>
      <point x="-5" y="471" type="line"/>
    </contour>
  </outline>
</glyph>
<glyph name="ntilde" format="1">
  <advance width="450"/>
  <unicode hex="00F1"/>
  <outline>
    <contour>
      <point x="358" y="549" type="line"/>
      <point x="266" y="549" type="line"/>
      <point x="186" y="600" type="line"/>
      <point x="93" y="600" type="line"/>
    </contour>
    <contour>
      <point x="76" y="0" type="line"/>
      <point x="76" y="346" type="line"/>
    </contour>
    <contour>
      <point x="375" y="0" type="line"/>
      <point x="375" y="219" type="line"/>
      <point x="328" y="300" type="line"/>
      <point x="248" y="346" type="line"/>
      <point x="156" y="346" type="line"/>
      <point x="75" y="300" type="line"/>
    </contour>
  </outline>
</glyph>
<glyph name="ocircumflex" format="1">
  <advance width="486"/>
  <unicode hex="00F4"/>
  <outline>
    <contour>
      <point x="289" y="0" type="line"/>
      <point x="369" y="47" type="line"/>
      <point x="416" y="127" type="line"/>
      <point x="416" y="219" type="line"/>
      <point x="369" y="300" type="line"/>
      <point x="289" y="346" type="line"/>
      <point x="197" y="346" type="line"/>
      <point x="116" y="300" type="line"/>
      <point x="70" y="219" type="line"/>
      <point x="70" y="127" type="line"/>
      <point x="116" y="47" type="line"/>
      <point x="197" y="0" type="line"/>
    </contour>
    <contour>
      <point x="323" y="471" type="line"/>
      <point x="243" y="518" type="line"/>
      <point x="163" y="471" type="line"/>
    </contour>
  </outline>
</glyph>
<glyph name="divide" format="1">
  <advance width="448"/>
  <unicode hex="00F7"/>
  <outline>
    <contour>
      <point x="373" y="179" type="line"/>
      <point x="75" y="179" type="line"/>
    </contour>
  </outline>
</glyph>
<glyph name="oslash" format="1">
  <advance width="495"/>
  <unicode hex="00F8"/>
  <outline>
    <contour>
      <point x="78" y="0" type="line"/>
      <point x="381" y="345" type="line"/>
    </contour>
    <contour>
      <point x="293" y="0" type="line"/>
      <point x="373" y="47" type="line"/>
      <point x="420" y="127" type="line"/>
      <point x="420" y="219" type="line"/>
      <point x="373" y="300" type="line"/>
      <point x="293" y="346" type="line"/>
      <point x="201" y="346" type="line"/>
      <point x="120" y="300" type="line"/>
      <point x="74" y="219" type="line"/>
      <point x="74" y="127" type="line"/>
      <point x="120" y="47" type="line"/>
      <point x="201" y="0" type="line"/>
    </contour>
  </outline>
</glyph>
<glyph name="ydieresis" format="1">
  <advance width="388"/>
  <unicode hex="00FF"/>
  <outline>
    <contour>
      <point x="353" y="348" type="line"/>
      <point x="115" y="-154" type="line"/>
      <point x="35" y="-200" type="line"/>
    </contour>
    <contour>
      <point x="40" y="347" type="line"/>
      <point x="189" y="0" type="line"/>
    </contour>
  </outline>
</glyph>
<glyph name="OE" format="1">
  <advance width="907"/>
  <unicode hex="0152"/>
  <outline>
    <contour>
      <point x="837" y="599" type="line"/>
      <point x="452" y="599" type="line"/>
      <point x="452" y="0" type="line"/>
      <point x="837" y="0" type="line"/>
    </contour>
    <contour>
      <point x="452" y="300" type="line"/>
      <point x="718" y="300" type="line"/>
    </contour>
    <contour>
      <point x="450" y="599" type="line"/>
      <point x="289" y="599" type="line"/>
      <point x="150" y="519" type="line"/>
      <point x="70" y="380" type="line"/>
      <point x="70" y="219" type="line"/>
      <point x="150" y="80" type="line"/>
      <point x="289" y="0" type="line"/>
      <point x="450" y="0" type="line"/>
    </contour>
  </outline>
</glyph>
<glyph name="oe" format="1">
  <advance width="739"/>
  <unicode hex="0153"/>
  <outline>
    <contour>
      <point x="323" y="174" type="line"/>
      <point x="668" y="174" type="line"/>
      <point x="669" y="219" type="line"/>
      <point x="622" y="300" type="line"/>
      <point x="542" y="346" type="line"/>
      <point x="450" y="346" type="line"/>
      <point x="369" y="300" type="line"/>
      <point x="323" y="219" type="line"/>
      <point x="323" y="127" type="line"/>
      <point x="369" y="47" type="line"/>
      <point x="450" y="1" type="line"/>
      <point x="542" y="1" type="line"/>
      <point x="622" y="47" type="line"/>
    </contour>
    <contour>
      <point x="369" y="300" type="line"/>
      <point x="289" y="346" type="line"/>
      <point x="196" y="346" type="line"/>
      <point x="116" y="300" type="line"/>
      <point x="70" y="219" type="line"/>
      <point x="70" y="127" type="line"/>
      <point x="116" y="47" type="line"/>
      <point x="196" y="0" type="line"/>
      <point x="289" y="0" type="line"/>
      <point x="369" y="47" type="line"/>
    </contour>
  </outline>
</glyph>
<glyph name="uni0394" format="1">
  <advance width="469"/>
  <unicode hex="0394"/>
  <outline>
    <contour>
      <point x="70" y="1" type="line"/>
      <point x="399" y="1" type="line"/>
      <point x="235" y="394" type="line"/>
    </contour>
  </outline>
</glyph>
<glyph name="emdash" format="1">
  <advance width="488"/>
  <unicode hex="2014"/>
  <outline>
    <contour>
      <point x="70" y="158" type="line"/>
      <point x="418" y="158" type="line"/>
    </contour>
  </outline>
</glyph>
<glyph name="quoteleft" format="1">
  <advance width="186"/>
  <unicode hex="2018"/>
  <outline>
    <contour>
      <point x="70" y="599" type="line"/>
      <point x="116" y="519" type="line"/>
    </contour>
  </outline>
</glyph>
<glyph name="quotedblright" format="1">
  <advance width="332"/>
  <unicode hex="201D"/>
  <outline>
    <contour>
      <point x="262" y="599" type="line"/>
      <point x="216" y="519" type="line"/>
    </contour>
    <contour>
      <point x="116" y="599" type="line"/>
      <point x="70" y="519" type="line"/>
    </contour>
  </outline>
</glyph>
<glyph name="daggerdbl" format="1">
  <advance width="439"/>
  <unicode hex="2021"/>
  <outline>
    <contour>
      <point x="367" y="272" type="line"/>
      <point x="70" y="272" type="line"/>
    </contour>
    <contour>
      <point x="367" y="92" type="line"/>
      <point x="70" y="92" type="line"/>
    </contour>
    <contour>
      <point x="215" y="398" type="line"/>
      <point x="216" y="0" type="line"/>
    </contour>
  </outline>
</glyph>
<glyph name="uniFB02" format="1">
  <advance width="369"/>
  <unicode hex="FB02"/>
  <outline>
    <contour>
      <point x="293" y="1" type="line"/>
      <point x="293" y="599" type="line"/>
      <point x="201" y="599" type="line"/>
      <point x="121" y="553" type="line"/>
      <point x="75" y="472" type="line"/>
      <point x="75" y="0" type="line"/>
    </contour>
    <contour>
      <point x="167" y="346" type="line"/>
      <point x="75" y="346" type="line"/>
    </contour>
  </outline>
</glyph>
<glyph name="uniFB05" format="1">
  <advance width="457"/>
  <unicode hex="FB05"/>
  <outline>
    <contour>
      <point x="167" y="346" type="line"/>
      <point x="75" y="346" type="line"/>
    </contour>
    <contour>
      <point x="422" y="0" type="line"/>
      <point x="341" y="46" type="line"/>
      <point x="294" y="126" type="line"/>
      <point x="294" y="599" type="line"/>
      <point x="201" y="599" type="line"/>
      <point x="121" y="553" type="line"/>
      <point x="75" y="472" type="line"/>
      <point x="75" y="0" type="line"/>
    </contour>
    <contour>
      <point x="387" y="352" type="line"/>
      <point x="294" y="352" type="line"/>
    </contour>
  </outline>
</glyph>
